<svg xmlns="http://www.w3.org/2000/svg" width="64" height="64" viewBox="0 0 64 64" fill="none">
    <rect width="64" height="64" rx="15" fill="white"></rect>
    <path
        d="M36.903 39.0817L46.5018 29.5146C47.7636 28.2547 48.5972 26.6299 48.8846 24.8701C49.1719 23.1103 48.8985 21.3047 48.1031 19.7089C47.6056 18.71 46.9161 17.8189 46.0742 17.0865C45.2323 16.354 44.2544 15.7946 43.1962 15.4401C42.1381 15.0856 41.0205 14.9431 39.9073 15.0205C38.7941 15.0979 37.707 15.3939 36.7081 15.8914C35.1118 16.687 33.8063 17.9647 32.9763 19.5434C32.1464 21.1222 31.8342 22.922 32.084 24.688L33.9799 38.1028C34.0248 38.4196 34.1571 38.7176 34.3618 38.9635C34.5665 39.2094 34.8357 39.3934 35.1391 39.4951C35.4425 39.5967 35.7682 39.6118 36.0797 39.5388C36.3913 39.4658 36.6763 39.3075 36.903 39.0817V39.0817Z"
        stroke="#00A3FA" stroke-width="2" stroke-linecap="round" stroke-linejoin="round"></path>
    <path d="M35.1401 39.494L39.4924 26.4948" stroke="#00A3FA" stroke-width="2" stroke-linecap="round"
        stroke-linejoin="round"></path>
    <path
        d="M15.0044 30.8712C19.6875 24.9207 24.1243 27.6701 24.1243 30.6521C24.1243 33.8563 18.2448 38.2644 18.2448 43.0169C18.2672 43.8417 18.4553 44.6535 18.7979 45.4041C19.1406 46.1546 19.6307 46.8285 20.2392 47.3857C20.8477 47.9429 21.5621 48.372 22.3398 48.6473C23.1176 48.9227 23.9428 49.0388 24.7663 48.9886C27.9118 48.7989 30.8715 47.4355 33.0599 45.1681"
        stroke="#00A3FA" stroke-width="2" stroke-linecap="round" stroke-linejoin="round"></path>
    <path
        d="M40.3232 26.6307C41.7674 26.6307 42.9382 25.46 42.9382 24.0158C42.9382 22.5716 41.7674 21.4008 40.3232 21.4008C38.879 21.4008 37.7083 22.5716 37.7083 24.0158C37.7083 25.46 38.879 26.6307 40.3232 26.6307Z"
        stroke="#00A3FA" stroke-width="2" stroke-linecap="round" stroke-linejoin="round"></path>
</svg>